<?xml version="1.0" encoding="UTF-8" standalone="no"?>
<!-- Generator: Adobe Illustrator 16.0.0, SVG Export Plug-In . SVG Version: 6.00 Build 0)  -->

<svg
   version="1.1"
   x="0px"
   y="0px"
   width="176.519"
   height="176.51801"
   viewBox="0 0 176.519 176.51801"
   enable-background="new 0 0 707 305"
   xml:space="preserve"
   id="svg53"
   sodipodi:docname="IconWhite.svg"
   inkscape:version="1.2.2 (b0a8486541, 2022-12-01)"
   xmlns:inkscape="http://www.inkscape.org/namespaces/inkscape"
   xmlns:sodipodi="http://sodipodi.sourceforge.net/DTD/sodipodi-0.dtd"
   xmlns="http://www.w3.org/2000/svg"
   xmlns:svg="http://www.w3.org/2000/svg"><defs
   id="defs57" /><sodipodi:namedview
   id="namedview55"
   pagecolor="#ffffff"
   bordercolor="#666666"
   borderopacity="1.0"
   inkscape:pageshadow="2"
   inkscape:pageopacity="0.0"
   inkscape:pagecheckerboard="true"
   showgrid="false"
   inkscape:zoom="1.6902405"
   inkscape:cx="171.57322"
   inkscape:cy="90.223847"
   inkscape:window-width="1599"
   inkscape:window-height="1251"
   inkscape:window-x="1114"
   inkscape:window-y="124"
   inkscape:window-maximized="0"
   inkscape:current-layer="g44"
   fit-margin-top="0"
   fit-margin-left="0"
   fit-margin-right="0"
   fit-margin-bottom="0"
   inkscape:showpageshadow="0"
   inkscape:deskcolor="#d1d1d1" />
<g
   id="Layer_1_1_"
   transform="translate(-65.008,-63.482)">
	</g><g
   id="Layer_1_2_"
   transform="translate(-65.008,-63.482)">
	</g><g
   id="g6"
   transform="translate(-65.008,-63.482)">
		<g
   id="Layer_1_6_">
		</g>
		<g
   id="Layer_1_5_">
		</g>
	</g><g
   id="g44"
   transform="translate(-65.008,-63.482)">
			<path
   fill="#0c2a4a"
   d="m 172.624,207.795 c 0.871,0 1.69,-0.34 2.307,-0.957 0.617,-0.618 0.955,-1.438 0.955,-2.309 0,-0.873 -0.34,-1.693 -0.959,-2.31 -0.635,-0.636 -1.471,-0.952 -2.305,-0.952 -0.837,0 -1.674,0.318 -2.311,0.956 v 0.002 c -0.617,0.616 -0.955,1.436 -0.955,2.308 0,0.871 0.34,1.69 0.957,2.307 0.617,0.617 1.438,0.955 2.309,0.955 0,0 0,0 0.002,0 z"
   id="path32" />
			<path
   fill="#0c2a4a"
   d="m 188.781,165.377 c 1.271,-1.271 1.271,-3.345 -0.004,-4.616 -0.616,-0.616 -1.437,-0.954 -2.308,-0.954 0,0 0,0 -0.002,0 -0.871,0 -1.69,0.34 -2.307,0.956 v 0.002 c -1.273,1.271 -1.271,3.343 0.004,4.616 1.274,1.275 3.348,1.267 4.617,-0.004 z"
   id="path34" />
			<path
   fill="#0c2a4a"
   d="M 203.972,63.482 H 102.563 c -20.741,0 -37.555,16.814 -37.555,37.556 v 81.276 l 33.213,-33.213 -1.076,-6.842 c -2.126,-0.434 -4.082,-1.476 -5.651,-3.047 -4.355,-4.359 -4.354,-11.451 0.008,-15.81 4.366,-4.354 11.456,-4.35 15.812,0.012 2.109,2.112 3.271,4.919 3.27,7.906 -0.002,2.985 -1.168,5.791 -3.279,7.901 -0.705,0.704 -1.51,1.26 -2.351,1.744 l 1.713,10.883 -41.657,41.656 v 8.94 c 0,1.725 0.156,3.408 0.382,5.071 l 54.83,-54.83 -2.199,-17.996 12.669,-12.652 c -0.643,-1.425 -1.005,-2.971 -1.004,-4.581 0,-2.987 1.165,-5.795 3.278,-7.905 2.11,-2.105 4.916,-3.267 7.899,-3.267 0.002,0 0.004,0 0.006,0 2.986,0 5.795,1.165 7.904,3.278 4.355,4.361 4.352,11.454 -0.012,15.81 -2.109,2.108 -4.915,3.27 -7.898,3.27 -0.002,0 -0.004,0 -0.008,0 -1.606,-0.001 -3.15,-0.364 -4.574,-1.006 l -9.938,9.925 2.199,17.992 -60.832,60.832 c 1.325,3.309 3.108,6.375 5.269,9.141 l 62.365,-62.365 c -0.642,-1.424 -1.004,-2.97 -1.003,-4.579 0,-2.987 1.165,-5.795 3.279,-7.904 2.109,-2.106 4.915,-3.268 7.898,-3.268 0.002,0 0.004,0 0.006,0 2.987,0 5.795,1.165 7.904,3.278 4.355,4.361 4.352,11.455 -0.012,15.81 -2.109,2.108 -4.915,3.27 -7.898,3.27 -0.002,0 -0.004,0 -0.008,0 -1.607,-0.001 -3.152,-0.364 -4.575,-1.007 l -62.472,62.473 c 2.604,2.183 5.518,3.998 8.652,5.417 l 61.263,-61.262 17.992,2.198 9.925,-9.937 c -0.642,-1.424 -1.005,-2.967 -1.006,-4.574 -0.002,-2.987 1.159,-5.794 3.27,-7.906 2.109,-2.114 4.918,-3.279 7.902,-3.279 0.002,0 0.004,0 0.006,0 2.984,0 5.789,1.159 7.901,3.27 4.36,4.357 4.364,11.448 0.01,15.81 -2.18,2.182 -5.046,3.273 -7.909,3.273 -1.564,0 -3.116,-0.356 -4.568,-1.007 l -12.658,12.675 -17.997,-2.199 -55.621,55.621 c 2.251,0.422 4.563,0.666 6.937,0.666 h 6.792 l 42.731,-42.73 10.88,1.711 c 0.485,-0.84 1.04,-1.644 1.745,-2.349 4.354,-4.362 11.445,-4.364 15.809,-0.013 4.363,4.36 4.365,11.451 0.01,15.813 -2.109,2.112 -4.917,3.277 -7.902,3.277 -0.002,0 -0.004,0 -0.006,0 -2.983,0 -5.789,-1.159 -7.901,-3.27 -1.57,-1.568 -2.612,-3.524 -3.046,-5.65 L 154.835,205.713 120.547,240 h 83.425 c 20.74,0 37.555,-16.813 37.555,-37.554 V 101.038 C 241.526,80.297 224.712,63.482 203.972,63.482 Z"
   id="path36"
   style="fill:#ffffff" />
			<path
   fill="#0c2a4a"
   d="m 102.668,131.315 c 0,-0.871 -0.338,-1.69 -0.954,-2.307 -0.637,-0.638 -1.475,-0.958 -2.312,-0.958 -0.835,0 -1.671,0.318 -2.307,0.954 -0.616,0.614 -0.956,1.434 -0.956,2.307 0,0.872 0.338,1.69 0.954,2.308 0.616,0.618 1.436,0.958 2.307,0.958 0.002,0 0.002,0 0.002,0 0.872,0.002 1.691,-0.338 2.31,-0.954 0.616,-0.617 0.956,-1.435 0.956,-2.308 z"
   id="path38" />
			<path
   fill="#0c2a4a"
   d="m 145.521,161.854 c 0.871,0 1.691,-0.34 2.307,-0.955 1.273,-1.272 1.275,-3.345 0.005,-4.618 -0.616,-0.616 -1.437,-0.956 -2.31,-0.956 0,0 0,0 -0.002,0 -0.871,0 -1.688,0.339 -2.305,0.954 -0.618,0.617 -0.959,1.437 -0.959,2.308 -0.002,0.871 0.339,1.69 0.955,2.308 0.616,0.618 1.436,0.958 2.307,0.96 h 0.002 z"
   id="path40" />
			<path
   fill="#0c2a4a"
   d="m 140.864,120.729 c 0.871,0 1.69,-0.34 2.307,-0.954 1.273,-1.273 1.275,-3.345 0.004,-4.618 -0.616,-0.616 -1.436,-0.956 -2.309,-0.956 0,0 0,0 -0.002,0 -0.872,0 -1.688,0.338 -2.306,0.954 -0.618,0.617 -0.958,1.436 -0.958,2.308 -0.002,0.871 0.338,1.69 0.954,2.307 0.616,0.618 1.436,0.958 2.308,0.96 h 0.002 z"
   id="path42" />
		</g>
<g
   id="Layer_2"
   transform="translate(-65.008,-63.482)">
</g>
<g
   id="Layer_3"
   transform="translate(-65.008,-63.482)">
</g>
<g
   id="Layer_4"
   transform="translate(-65.008,-63.482)">
</g>
<g
   id="Layer_5"
   transform="translate(-65.008,-63.482)">
</g>
</svg>
